<?xml version="1.0" encoding="utf-8"?>
<!-- Generator: Adobe Illustrator 23.0.2, SVG Export Plug-In . SVG Version: 6.00 Build 0)  -->
<!DOCTYPE svg PUBLIC "-//W3C//DTD SVG 1.1//EN" "http://www.w3.org/Graphics/SVG/1.1/DTD/svg11.dtd" [
	<!ENTITY st0 "fill:#2498DD;">
]>
<svg version="1.1" id="Layer_1" xmlns="http://www.w3.org/2000/svg" xmlns:xlink="http://www.w3.org/1999/xlink" x="0px" y="0px"
	 viewBox="0 0 62.72 34.55" style="enable-background:new 0 0 62.72 34.55;" xml:space="preserve">
<g>
	<path style="&st0;" d="M4.491,9.821c-0.821,0-1.297-0.379-1.416-1.127L3.033,8.42H2.046l0.045,0.364
		c0.154,1.271,1.023,2.001,2.384,2.001c1.279,0,2.172-0.753,2.172-1.831c0-0.483-0.208-1.333-1.608-1.602L4.201,7.194
		c-0.325-0.06-0.87-0.224-0.87-0.643c0-0.558,0.553-0.756,1.07-0.756c0.717,0,1.137,0.288,1.259,0.916L5.7,6.914h0.992L6.636,6.541
		C6.48,5.492,5.618,4.84,4.387,4.84c-1.218,0-2.068,0.707-2.068,1.719c0,0.818,0.597,1.397,1.636,1.587l0.901,0.172
		C5.218,8.384,5.65,8.554,5.65,8.99C5.65,9.603,5.051,9.821,4.491,9.821z"/>
	<polygon style="&st0;" points="9.5,10.672 10.49,10.672 10.49,5.922 12.434,5.922 12.434,4.952 7.557,4.952 7.557,5.922 9.5,5.922 
			"/>
	<path style="&st0;" d="M16.026,10.784c1.432,0,2.432-1.044,2.432-2.54V4.952H17.46v3.293c0,0.444-0.141,0.845-0.397,1.129
		c-0.26,0.288-0.618,0.44-1.037,0.44c-0.418,0-0.776-0.152-1.036-0.44c-0.256-0.284-0.397-0.685-0.397-1.129V4.952h-0.998v3.293
		C13.595,9.74,14.595,10.784,16.026,10.784z"/>
	<path style="&st0;" d="M24.581,9.867c0.542-0.529,0.828-1.252,0.828-2.092c0-0.819-0.287-1.525-0.831-2.041l0,0
		c-0.539-0.511-1.274-0.781-2.127-0.781h-2.016v5.721h2.016C23.306,10.672,24.042,10.394,24.581,9.867z M21.433,5.922h1.019
		c0.577,0,1.068,0.178,1.421,0.515c0.348,0.333,0.532,0.796,0.532,1.337c0,1.171-0.767,1.928-1.953,1.928h-1.019V5.922z"/>
	<rect x="27.26" y="4.952" style="&st0;" width="0.998" height="5.721"/>
	<path style="&st0;" d="M32.882,10.777c1.627,0,2.95-1.33,2.95-2.965s-1.323-2.965-2.95-2.965c-1.627,0-2.951,1.33-2.951,2.965
		S31.254,10.777,32.882,10.777z M32.882,5.825c1.077,0,1.953,0.891,1.953,1.987s-0.876,1.987-1.953,1.987s-1.954-0.891-1.954-1.987
		S31.805,5.825,32.882,5.825z"/>
	<path style="&st0;" d="M19.828,13.511c-1.293,0-2.533,0.396-3.584,1.144c-1.637,1.165-2.615,3.062-2.615,5.073
		c0,3.428,2.781,6.217,6.199,6.217c3.418,0,6.199-2.789,6.199-6.217C26.027,16.3,23.246,13.511,19.828,13.511z M19.828,25.195
		c-3.004,0-5.449-2.452-5.449-5.467c0-0.892,0.22-1.758,0.621-2.53c0.026,0.736,0.318,1.402,0.784,1.909
		c-0.031,0.206-0.061,0.412-0.061,0.621c0,2.271,1.841,4.117,4.105,4.117s4.105-1.847,4.105-4.117c0-2.27-1.842-4.117-4.105-4.117
		c-0.881,0-1.721,0.276-2.43,0.798l0.013,0.018c-0.226,0.171-0.383,0.43-0.383,0.735c0,0.516,0.419,0.936,0.935,0.936
		s0.935-0.42,0.935-0.936c0-0.227-0.091-0.427-0.225-0.589c0.367-0.135,0.755-0.212,1.155-0.212c0.079,0,0.153,0.018,0.231,0.023
		c0.077,0.229,0.128,0.464,0.128,0.71c0,1.23-0.998,2.231-2.224,2.231s-2.223-1.001-2.223-2.231c0-0.724,0.352-1.406,0.941-1.823
		l-0.003-0.004c0,0,0,0,0.001-0.001h0c0.923-0.658,2.012-1.005,3.148-1.005c3.005,0,5.449,2.453,5.449,5.467
		S22.832,25.195,19.828,25.195z M20.879,16.547c1.334,0.446,2.304,1.695,2.304,3.181c0,1.856-1.505,3.367-3.355,3.367
		s-3.355-1.511-3.355-3.367c0-0.022,0.006-0.044,0.006-0.066c0.438,0.256,0.941,0.413,1.484,0.413c1.64,0,2.974-1.338,2.974-2.981
		C20.936,16.908,20.912,16.726,20.879,16.547z M18.147,17.162c0,0.205-0.369,0.205-0.369,0c0-0.103,0.083-0.187,0.185-0.187
		S18.147,17.059,18.147,17.162z"/>
	<path style="&st0;" d="M10.618,13.538c-1.64,0-2.974,1.34-2.974,2.987v0.198l-4.229-0.001c-0.767,0-1.391,0.626-1.391,1.396
		s0.624,1.396,1.391,1.396l4.229,0.002l-0.001,9.819c0,1.106-0.71,1.821-1.81,1.821c-1.031,0-1.809-0.783-1.809-1.821
		c0-0.565,0.375-1.123,0.382-1.133c0.425-0.638,0.253-1.504-0.382-1.933c-0.311-0.208-0.686-0.285-1.055-0.21
		c-0.365,0.072-0.678,0.281-0.882,0.588l-0.077,0.118c-0.02,0.03-0.039,0.06-0.058,0.09l-0.084,0.129l0.004,0.002
		c-0.418,0.71-0.638,1.514-0.638,2.349c0,2.548,2.063,4.621,4.599,4.621s4.6-2.073,4.6-4.621v-9.82l0.185-0.001
		c1.639,0,2.973-1.34,2.973-2.987C13.591,14.878,12.257,13.538,10.618,13.538z M3.415,18.763c-0.353,0-0.641-0.29-0.641-0.646
		c0-0.356,0.288-0.646,0.641-0.646l4.229,0.001l0,1.292L3.415,18.763z M10.616,18.762l-0.183,0.001v-1.301h0.185
		c0.515,0,0.935-0.42,0.935-0.938c0-0.517-0.419-0.937-0.935-0.937s-0.935,0.42-0.935,0.937v12.809c0,2.135-1.727,3.871-3.85,3.871
		s-3.849-1.736-3.849-3.871c0-0.816,0.25-1.598,0.724-2.26l0.058-0.082c0.09-0.102,0.212-0.171,0.35-0.198
		c0.172-0.035,0.346,0,0.491,0.097c0.293,0.198,0.373,0.6,0.179,0.89c-0.021,0.03-0.511,0.752-0.511,1.554
		c0,1.441,1.124,2.571,2.559,2.571c1.507,0,2.56-1.058,2.56-2.571l0.001-12.809c0-1.233,0.998-2.237,2.224-2.237
		s2.223,1.003,2.223,2.237C12.841,17.759,11.844,18.762,10.616,18.762z M10.433,16.712v-0.188c0-0.206,0.369-0.206,0.369,0
		c0,0.104-0.083,0.188-0.184,0.188H10.433z"/>
	<path style="&st0;" d="M60.068,21.702c-0.518,0-0.871,0.279-1.154,0.559c-0.543,0.562-1.271,0.871-2.053,0.871
		c-0.859,0-1.661-0.399-2.197-1.042c0.281,0.057,0.568,0.098,0.871,0.098c2.385,0,4.324-1.946,4.324-4.339
		c0-2.392-1.939-4.338-4.324-4.338c-2.188,0-4.044,1.675-4.315,3.811c-1.441-0.099-2.254,0.641-2.905,1.374
		c-0.2,0.24-0.319,0.584-0.319,0.919c0,0.762,0.618,1.381,1.378,1.381c0.496,0,1.015-0.371,1.25-0.72
		c0.026-0.039,0.12-0.108,0.262-0.131c0.079-0.015,0.194,0.004,0.316,0.058c0.105,3.345,2.449,5.751,5.661,5.751
		c1.699,0,3.296-0.755,4.383-2.077c0.146-0.185,0.241-0.48,0.241-0.754C61.485,22.338,60.85,21.702,60.068,21.702z M50.974,19.386
		c-0.069,0-0.139,0.006-0.208,0.017c-0.322,0.053-0.608,0.222-0.764,0.452c-0.133,0.196-0.444,0.39-0.629,0.39
		c-0.347,0-0.628-0.283-0.628-0.631c0-0.16,0.058-0.332,0.138-0.43c0.762-0.856,1.408-1.281,2.616-1.073
		c0.647,0.111,1.304,0.579,1.939,1.031c0.718,0.513,1.396,0.996,2.097,0.996c1.259,0,2.283-1.027,2.283-2.29
		c0-1.263-1.024-2.29-2.283-2.29c-1.191,0-2.276,1.016-2.276,2.132l-0.001,0.413c-0.409-0.27-0.844-0.516-1.298-0.653
		c0.208-1.785,1.752-3.19,3.575-3.19c1.971,0,3.574,1.61,3.574,3.588s-1.604,3.589-3.574,3.589c-1.56,0-2.884-1.072-3.52-1.588
		l-0.225-0.179C51.549,19.485,51.265,19.386,50.974,19.386z M54.007,18.627l0.002-0.936c0-0.639,0.667-1.382,1.526-1.382
		c0.846,0,1.533,0.69,1.533,1.54s-0.688,1.54-1.533,1.54C55.108,19.388,54.575,19.03,54.007,18.627z M60.66,23.404
		c-0.939,1.144-2.324,1.799-3.799,1.799c-2.582,0-4.505-1.811-4.849-4.403c0.411,0.312,0.94,0.669,1.568,0.946
		c0.58,1.282,1.869,2.135,3.282,2.135c0.986,0,1.906-0.391,2.586-1.093c0.252-0.249,0.414-0.337,0.621-0.337
		c0.368,0,0.667,0.301,0.667,0.67C60.735,23.253,60.683,23.376,60.66,23.404z"/>
	<path style="&st0;" d="M48.113,21.737c-0.519,0-0.872,0.279-1.155,0.559c-0.569,0.59-0.876,0.873-1.633,0.873
		c-0.655,0-1.575-0.505-2.287-0.981c0.124,0,0.24,0,0.347,0h0.212c2.375,0,4.307-1.941,4.307-4.327c0-2.386-1.932-4.327-4.307-4.327
		c-0.568,0-1.127,0.116-1.647,0.332l0.037-10.282c0-1.647-1.334-2.987-2.974-2.987c-1.653,0-2.665,1.334-2.665,2.06
		c0,0.814,0.566,1.383,1.378,1.383c0.546,0,0.82-0.284,1.001-0.473c0.142-0.147,0.178-0.171,0.253-0.171
		c0.122,0,0.185,0.063,0.185,0.188l-0.008,16.274c-2.171,0.539-3.117,1.489-3.117,3.148c0,1.646,1.334,2.986,2.974,2.986
		c1.288,0,2.369-0.606,2.745-1.437c1.238,0.937,2.438,1.439,3.566,1.439c1.987,0,3.116-1.049,3.963-2.08
		c0.146-0.185,0.241-0.481,0.241-0.755C49.529,22.375,48.894,21.737,48.113,21.737z M41.935,17.851
		c0.014-0.851,0.734-1.516,1.644-1.516c0.889,0,1.533,0.649,1.533,1.542c0,0.85-0.688,1.542-1.533,1.542
		c-0.545,0-1.118,0.022-1.65,0.053L41.935,17.851z M38.98,2.645c-0.406,0-0.63,0.231-0.793,0.401
		c-0.15,0.156-0.233,0.243-0.461,0.243c-0.583,0-0.628-0.485-0.628-0.633c0-0.326,0.679-1.31,1.915-1.31
		c1.227,0,2.224,1.003,2.224,2.236l-0.052,14.264c0,0.001,0,0.002,0,0.003h0l-0.006,1.682c-0.546,0.054-0.973,0.114-1.272,0.165
		l0.008-16.112C39.915,3.048,39.514,2.645,38.98,2.645z M38.354,22.277c-0.204,0.204-0.312,0.456-0.312,0.728
		c0,0.517,0.419,0.938,0.935,0.938s0.935-0.421,0.935-0.938v-0.61c0.376-0.074,0.813-0.121,1.257-0.152l-0.005,1.678l0.375,0.001
		l-0.002,0.003h-0.375c0,0.636-0.863,1.316-2.147,1.316c-1.227,0-2.224-1.003-2.224-2.236c0-0.904,0.219-1.916,2.807-2.488
		l1.99-0.273c0.595-0.047,1.339-0.074,1.992-0.074c1.259,0,2.283-1.028,2.283-2.292c0-1.307-0.981-2.292-2.283-2.292
		c-0.639,0-1.211,0.235-1.638,0.616l0.005-1.501c0.508-0.268,1.072-0.417,1.65-0.417c1.961,0,3.557,1.604,3.557,3.577
		c0,1.972-1.596,3.577-3.557,3.577h-0.211C41.279,21.453,39.137,21.497,38.354,22.277z M39.161,22.623v0.382
		c0,0.207-0.369,0.207-0.369,0c0-0.049,0.011-0.114,0.093-0.196C38.954,22.739,39.048,22.677,39.161,22.623z M48.704,23.441
		c-1.05,1.28-2.029,1.802-3.379,1.802c-1.289,0-2.544-0.791-3.411-1.501l0.005-1.437c0.589,0.457,2.195,1.613,3.407,1.613
		c1.109,0,1.626-0.535,2.166-1.095c0.252-0.249,0.414-0.337,0.622-0.337c0.367,0,0.666,0.301,0.666,0.671
		C48.779,23.29,48.727,23.413,48.704,23.441z"/>
	<path style="&st0;" d="M31.092,16.476c0.423-0.233,1.528,0.066,2.462,0.665c0.903,0.577,1.745,0.253,2.146-0.294
		c0.441-0.601,0.341-1.363-0.245-1.854c-1.13-0.937-2.53-1.452-3.944-1.452c-2.035,0-3.512,1.382-3.512,3.285
		c0,0.76,0.245,1.452,0.66,2.002c-0.165-0.072-0.356-0.108-0.574-0.108c-1.069,0-1.611,0.837-1.611,2.488
		c0,2.834,2.071,4.737,5.152,4.737c2.359,0,4.278-1.929,4.278-4.299c0-2.582-1.666-4.317-4.145-4.317c-0.84,0-0.84-0.273-0.84-0.473
		C30.919,16.571,31.04,16.504,31.092,16.476z M31.759,18.079c2.062,0,3.395,1.4,3.395,3.567c0,1.957-1.583,3.549-3.528,3.549
		c-2.674,0-4.402-1.565-4.402-3.987c0-1.219,0.257-1.738,0.861-1.738c0.176,0,0.299,0.038,0.367,0.112
		c0.172,0.189,0.123,0.696,0.09,1.031c-0.015,0.154-0.028,0.295-0.028,0.408c0,1.646,1.235,2.888,2.874,2.888
		c1.245,0,2.259-1.018,2.259-2.269c0-0.788-0.497-2.279-2.377-2.279c-1.413,0-2.52-1.114-2.52-2.536
		c0-1.493,1.136-2.535,2.762-2.535c1.239,0,2.471,0.455,3.464,1.278c0.335,0.281,0.274,0.625,0.121,0.834
		c-0.208,0.283-0.641,0.425-1.138,0.106c-0.995-0.638-2.43-1.125-3.226-0.691c-0.363,0.199-0.563,0.567-0.563,1.038
		C30.169,17.414,30.445,18.079,31.759,18.079z M29.204,19.391c0.559,0.452,1.275,0.72,2.064,0.72c1.608,0,1.627,1.467,1.627,1.529
		c0,0.837-0.677,1.519-1.509,1.519c-1.23,0-2.124-0.899-2.124-2.138c0-0.093,0.012-0.208,0.024-0.335
		C29.326,20.298,29.374,19.799,29.204,19.391z"/>
</g>
</svg>
